<svg xmlns="http://www.w3.org/2000/svg" xmlns:xlink="http://www.w3.org/1999/xlink" width="500" zoomAndPan="magnify" viewBox="0 0 375 374.999991" height="500" preserveAspectRatio="xMidYMid meet" version="1.0"><rect x="-37.5" width="450" fill="#ffffff" y="-37.499999" height="449.999989" fill-opacity="1"/><rect x="-37.5" width="450" fill="#ffffff" y="-37.499999" height="449.999989" fill-opacity="1"/><rect x="-37.5" width="450" fill="#ffffff" y="-37.499999" height="449.999989" fill-opacity="1"/><path fill="#000000" d="M 233.109375 326.554688 C 235.773438 325.664062 238.414062 324.699219 241.023438 323.65625 C 243.632812 322.613281 246.210938 321.492188 248.753906 320.296875 C 251.296875 319.101562 253.804688 317.835938 256.273438 316.492188 C 258.742188 315.152344 261.171875 313.738281 263.554688 312.253906 C 265.941406 310.769531 268.28125 309.214844 270.578125 307.59375 C 272.871094 305.972656 275.117188 304.28125 277.3125 302.527344 C 279.507812 300.777344 281.652344 298.957031 283.738281 297.078125 C 285.828125 295.199219 287.859375 293.261719 289.835938 291.261719 C 291.808594 289.261719 293.722656 287.207031 295.578125 285.097656 C 297.429688 282.984375 299.222656 280.820312 300.945312 278.605469 C 302.671875 276.390625 304.332031 274.125 305.925781 271.8125 C 307.519531 269.496094 309.042969 267.140625 310.5 264.734375 C 311.953125 262.332031 313.335938 259.890625 314.648438 257.40625 C 315.957031 254.921875 317.195312 252.398438 318.359375 249.84375 C 319.519531 247.285156 320.605469 244.695312 321.617188 242.078125 C 322.628906 239.457031 323.558594 236.808594 324.414062 234.132812 C 325.269531 231.457031 326.042969 228.757812 326.742188 226.039062 C 327.4375 223.316406 328.050781 220.578125 328.585938 217.820312 C 329.121094 215.0625 329.574219 212.292969 329.945312 209.507812 C 330.320312 206.726562 330.609375 203.933594 330.816406 201.132812 C 331.023438 198.332031 331.148438 195.527344 331.191406 192.71875 C 331.234375 189.910156 331.195312 187.105469 331.074219 184.296875 C 330.949219 181.492188 330.746094 178.691406 330.457031 175.898438 C 330.171875 173.105469 329.804688 170.324219 329.351562 167.550781 C 328.902344 164.777344 328.371094 162.023438 327.757812 159.28125 C 327.144531 156.539062 326.453125 153.820312 325.679688 151.121094 C 324.90625 148.417969 324.054688 145.746094 323.125 143.09375 C 322.195312 140.445312 321.1875 137.824219 320.105469 135.230469 C 319.019531 132.640625 317.859375 130.085938 316.625 127.5625 C 315.390625 125.039062 314.082031 122.554688 312.703125 120.105469 C 311.320312 117.660156 309.871094 115.257812 308.347656 112.894531 C 306.824219 110.535156 305.234375 108.222656 303.578125 105.953125 C 301.917969 103.683594 300.195312 101.46875 298.40625 99.300781 C 296.617188 97.136719 294.769531 95.023438 292.855469 92.964844 C 290.941406 90.90625 288.972656 88.90625 286.941406 86.964844 C 284.910156 85.023438 282.824219 83.140625 280.683594 81.324219 C 278.542969 79.503906 276.347656 77.746094 274.105469 76.054688 C 271.859375 74.363281 269.570312 72.742188 267.230469 71.183594 C 264.890625 69.628906 262.503906 68.140625 260.078125 66.726562 C 257.652344 65.308594 255.183594 63.964844 252.679688 62.691406 C 250.171875 61.421875 247.628906 60.222656 245.054688 59.101562 C 242.476562 57.980469 239.871094 56.933594 237.230469 55.964844 C 234.59375 54.996094 231.929688 54.101562 229.238281 53.289062 C 226.546875 52.476562 223.835938 51.742188 221.101562 51.089844 C 218.367188 50.4375 215.617188 49.863281 212.851562 49.371094 C 210.082031 48.878906 207.300781 48.46875 204.511719 48.136719 C 201.71875 47.808594 198.921875 47.5625 196.113281 47.398438 C 193.308594 47.234375 190.5 47.148438 187.6875 47.148438 C 184.878906 47.148438 182.070312 47.234375 179.261719 47.398438 C 176.457031 47.5625 173.65625 47.808594 170.867188 48.136719 C 168.074219 48.46875 165.296875 48.878906 162.527344 49.371094 C 159.761719 49.863281 157.007812 50.4375 154.277344 51.089844 C 151.542969 51.742188 148.828125 52.476562 146.140625 53.289062 C 143.449219 54.101562 140.785156 54.996094 138.144531 55.964844 C 135.507812 56.933594 132.902344 57.980469 130.324219 59.101562 C 127.746094 60.222656 125.207031 61.421875 122.699219 62.691406 C 120.191406 63.964844 117.726562 65.308594 115.300781 66.726562 C 112.871094 68.140625 110.488281 69.628906 108.148438 71.183594 C 105.808594 72.742188 103.515625 74.367188 101.273438 76.054688 C 99.027344 77.746094 96.835938 79.503906 94.695312 81.324219 C 92.554688 83.140625 90.46875 85.023438 88.4375 86.964844 C 86.40625 88.90625 84.433594 90.90625 82.523438 92.964844 C 80.609375 95.023438 78.757812 97.136719 76.96875 99.300781 C 75.179688 101.46875 73.457031 103.683594 71.800781 105.953125 C 70.140625 108.222656 68.550781 110.535156 67.027344 112.894531 C 65.507812 115.257812 64.054688 117.660156 62.675781 120.105469 C 61.292969 122.554688 59.988281 125.039062 58.753906 127.5625 C 57.515625 130.085938 56.359375 132.640625 55.273438 135.234375 C 54.191406 137.824219 53.183594 140.445312 52.253906 143.09375 C 51.324219 145.746094 50.472656 148.417969 49.699219 151.121094 C 48.925781 153.820312 48.234375 156.539062 47.621094 159.28125 C 47.007812 162.023438 46.476562 164.777344 46.023438 167.550781 C 45.574219 170.324219 45.207031 173.105469 44.917969 175.898438 C 44.632812 178.695312 44.425781 181.492188 44.304688 184.300781 C 44.183594 187.105469 44.140625 189.910156 44.183594 192.71875 C 44.226562 195.527344 44.351562 198.332031 44.5625 201.132812 C 44.769531 203.933594 45.058594 206.726562 45.429688 209.507812 C 45.800781 212.292969 46.257812 215.0625 46.789062 217.820312 C 47.324219 220.578125 47.941406 223.316406 48.636719 226.039062 C 49.332031 228.757812 50.109375 231.457031 50.964844 234.132812 C 51.816406 236.808594 52.75 239.457031 53.761719 242.078125 C 54.769531 244.695312 55.855469 247.285156 57.019531 249.84375 C 58.183594 252.398438 59.417969 254.921875 60.730469 257.40625 C 62.042969 259.890625 63.425781 262.332031 64.878906 264.734375 C 66.332031 267.140625 67.855469 269.496094 69.449219 271.8125 C 71.042969 274.125 72.703125 276.390625 74.429688 278.605469 C 76.15625 280.820312 77.945312 282.984375 79.800781 285.097656 C 81.65625 287.207031 83.570312 289.261719 85.542969 291.261719 C 87.519531 293.261719 89.550781 295.199219 91.636719 297.078125 C 93.726562 298.957031 95.867188 300.777344 98.066406 302.53125 C 100.261719 304.28125 102.503906 305.972656 104.800781 307.59375 C 107.09375 309.214844 109.433594 310.769531 111.820312 312.253906 C 114.207031 313.738281 116.636719 315.152344 119.105469 316.492188 C 121.574219 317.835938 124.082031 319.101562 126.625 320.296875 C 129.167969 321.492188 131.746094 322.613281 134.355469 323.65625 C 136.964844 324.699219 139.601562 325.664062 142.269531 326.554688 C 149.46875 327.875 152.046875 323.4375 152.046875 319.601562 C 152.046875 317.023438 152.046875 311.269531 152.046875 303.476562 C 152.039062 302.96875 151.976562 302.464844 151.863281 301.96875 C 151.75 301.472656 151.585938 300.992188 151.367188 300.53125 C 151.152344 300.070312 150.890625 299.636719 150.585938 299.230469 C 150.277344 298.824219 149.933594 298.453125 149.546875 298.121094 C 149.164062 297.789062 148.746094 297.496094 148.300781 297.25 C 147.855469 297.003906 147.390625 296.808594 146.902344 296.660156 C 146.414062 296.511719 145.917969 296.417969 145.410156 296.371094 C 144.902344 296.328125 144.394531 296.339844 143.890625 296.402344 C 110.890625 299.9375 103.628906 275.78125 103.628906 275.78125 C 97.089844 259.175781 87.667969 254.742188 87.667969 254.742188 C 74.648438 245.808594 88.628906 245.988281 88.628906 245.988281 C 90.90625 246.304688 93.121094 246.875 95.265625 247.695312 C 97.414062 248.519531 99.4375 249.578125 101.34375 250.867188 C 103.246094 252.15625 104.980469 253.640625 106.539062 255.328125 C 108.101562 257.015625 109.453125 258.859375 110.589844 260.855469 C 111.011719 261.671875 111.472656 262.464844 111.96875 263.238281 C 112.464844 264.011719 112.996094 264.761719 113.5625 265.484375 C 114.128906 266.207031 114.730469 266.902344 115.363281 267.570312 C 115.996094 268.238281 116.65625 268.871094 117.347656 269.476562 C 118.039062 270.082031 118.757812 270.65625 119.503906 271.191406 C 120.25 271.730469 121.019531 272.234375 121.8125 272.699219 C 122.601562 273.164062 123.414062 273.59375 124.25 273.984375 C 125.082031 274.375 125.929688 274.722656 126.796875 275.035156 C 127.660156 275.34375 128.539062 275.613281 129.429688 275.84375 C 130.320312 276.070312 131.21875 276.257812 132.128906 276.402344 C 133.035156 276.546875 133.949219 276.648438 134.867188 276.707031 C 135.785156 276.765625 136.703125 276.78125 137.621094 276.757812 C 138.542969 276.730469 139.457031 276.660156 140.371094 276.546875 C 141.28125 276.433594 142.1875 276.277344 143.085938 276.082031 C 143.984375 275.882812 144.871094 275.644531 145.746094 275.363281 C 146.621094 275.085938 147.484375 274.765625 148.328125 274.402344 C 148.917969 274.191406 149.46875 273.90625 149.984375 273.554688 C 150.5 273.199219 150.960938 272.785156 151.371094 272.316406 C 151.78125 271.84375 152.125 271.328125 152.402344 270.765625 C 152.679688 270.207031 152.882812 269.621094 153.007812 269.007812 C 153.53125 266.699219 154.269531 264.460938 155.230469 262.292969 C 155.472656 261.789062 155.65625 261.265625 155.78125 260.722656 C 155.90625 260.175781 155.96875 259.625 155.96875 259.066406 C 155.96875 258.507812 155.90625 257.953125 155.777344 257.410156 C 155.652344 256.863281 155.464844 256.339844 155.21875 255.839844 C 154.976562 255.335938 154.675781 254.867188 154.324219 254.433594 C 153.972656 254 153.574219 253.609375 153.132812 253.265625 C 152.691406 252.921875 152.21875 252.628906 151.710938 252.394531 C 151.203125 252.15625 150.675781 251.980469 150.128906 251.863281 C 122.109375 246.410156 96.128906 231.0625 96.128906 182.449219 C 96.085938 179.5 96.277344 176.566406 96.699219 173.652344 C 97.121094 170.734375 97.769531 167.867188 98.644531 165.050781 C 99.523438 162.238281 100.613281 159.507812 101.921875 156.867188 C 103.230469 154.226562 104.742188 151.703125 106.449219 149.296875 C 107.078125 148.449219 107.609375 147.542969 108.046875 146.578125 C 108.480469 145.613281 108.8125 144.617188 109.035156 143.582031 C 109.257812 142.546875 109.367188 141.503906 109.367188 140.445312 C 109.367188 139.386719 109.253906 138.34375 109.027344 137.308594 C 107.675781 130.515625 107.675781 123.722656 109.027344 116.929688 C 109.117188 116.480469 109.230469 116.035156 109.367188 115.597656 C 109.5 115.160156 109.660156 114.730469 109.839844 114.308594 C 110.019531 113.886719 110.222656 113.476562 110.445312 113.074219 C 110.667969 112.675781 110.910156 112.289062 111.175781 111.914062 C 111.4375 111.539062 111.71875 111.175781 112.019531 110.832031 C 112.324219 110.484375 112.640625 110.15625 112.976562 109.84375 C 113.3125 109.53125 113.664062 109.238281 114.027344 108.960938 C 114.394531 108.683594 114.773438 108.429688 115.167969 108.191406 C 115.5625 107.957031 115.964844 107.742188 116.378906 107.546875 C 116.796875 107.351562 117.222656 107.179688 117.652344 107.03125 C 118.085938 106.878906 118.527344 106.753906 118.972656 106.648438 C 119.421875 106.542969 119.871094 106.464844 120.328125 106.40625 C 120.78125 106.347656 121.238281 106.316406 121.699219 106.304688 C 122.15625 106.296875 122.613281 106.308594 123.070312 106.347656 C 123.527344 106.386719 123.984375 106.449219 124.433594 106.53125 C 124.882812 106.617188 125.328125 106.726562 125.769531 106.859375 C 133.144531 109.269531 140.082031 112.585938 146.589844 116.808594 C 148.335938 117.855469 150.21875 118.535156 152.230469 118.847656 C 154.246094 119.160156 156.246094 119.078125 158.230469 118.605469 C 167.960938 116.4375 177.808594 115.355469 187.777344 115.355469 C 197.75 115.355469 207.597656 116.4375 217.328125 118.605469 C 219.3125 119.078125 221.3125 119.160156 223.324219 118.847656 C 225.339844 118.535156 227.222656 117.855469 228.96875 116.808594 C 235.300781 112.710938 242.039062 109.453125 249.1875 107.039062 C 249.652344 106.898438 250.121094 106.78125 250.59375 106.691406 C 251.070312 106.601562 251.546875 106.535156 252.03125 106.496094 C 252.511719 106.460938 252.996094 106.445312 253.480469 106.460938 C 253.960938 106.472656 254.445312 106.511719 254.921875 106.574219 C 255.402344 106.640625 255.875 106.730469 256.347656 106.847656 C 256.816406 106.960938 257.277344 107.101562 257.730469 107.265625 C 258.1875 107.433594 258.628906 107.621094 259.066406 107.832031 C 259.5 108.046875 259.921875 108.28125 260.328125 108.539062 C 260.738281 108.796875 261.132812 109.078125 261.511719 109.378906 C 261.890625 109.679688 262.25 109.996094 262.59375 110.335938 C 262.9375 110.675781 263.265625 111.03125 263.570312 111.40625 C 263.875 111.78125 264.160156 112.171875 264.425781 112.574219 C 264.691406 112.980469 264.929688 113.398438 265.152344 113.828125 C 265.371094 114.257812 265.566406 114.699219 265.738281 115.152344 C 265.910156 115.601562 266.054688 116.0625 266.179688 116.53125 C 266.300781 116.996094 266.398438 117.46875 266.46875 117.949219 C 267.71875 124.460938 267.71875 130.976562 266.46875 137.488281 C 266.246094 138.523438 266.132812 139.570312 266.132812 140.625 C 266.128906 141.683594 266.242188 142.730469 266.464844 143.761719 C 266.6875 144.796875 267.015625 145.792969 267.449219 146.757812 C 267.886719 147.722656 268.417969 148.628906 269.046875 149.480469 C 270.757812 151.882812 272.265625 154.40625 273.574219 157.046875 C 274.882812 159.6875 275.976562 162.417969 276.851562 165.230469 C 277.726562 168.046875 278.375 170.914062 278.800781 173.832031 C 279.222656 176.746094 279.410156 179.679688 279.367188 182.628906 C 279.367188 231.363281 253.328125 246.589844 225.367188 251.984375 C 224.824219 252.085938 224.300781 252.25 223.796875 252.472656 C 223.289062 252.695312 222.816406 252.972656 222.375 253.304688 C 221.933594 253.636719 221.535156 254.011719 221.175781 254.433594 C 220.820312 254.855469 220.515625 255.3125 220.265625 255.804688 C 220.015625 256.296875 219.820312 256.808594 219.6875 257.34375 C 219.550781 257.878906 219.480469 258.421875 219.46875 258.976562 C 219.460938 259.527344 219.511719 260.074219 219.625 260.613281 C 219.742188 261.152344 219.914062 261.675781 220.148438 262.175781 C 222.652344 267.90625 223.851562 273.902344 223.75 280.15625 L 223.75 319.660156 C 223.75 319.660156 225.789062 327.753906 233.109375 326.554688 Z M 233.109375 326.554688 " fill-opacity="1" fill-rule="nonzero"/></svg>